<svg width="30" height="23" viewBox="0 0 30 29" fill="none" xmlns="http://www.w3.org/2000/svg">
<path d="M15.0063 7.8125C11.0313 7.8125 7.825 11.0187 7.825 14.9937C7.825 18.9687 11.0313 22.175 15.0063 22.175C18.9813 22.175 22.1875 18.9687 22.1875 14.9937C22.1875 11.0187 18.9813 7.8125 15.0063 7.8125ZM15.0063 19.6625C12.4375 19.6625 10.3375 17.5687 10.3375 14.9937C10.3375 12.4187 12.4313 10.325 15.0063 10.325C17.5813 10.325 19.675 12.4187 19.675 14.9937C19.675 17.5687 17.575 19.6625 15.0063 19.6625V19.6625ZM24.1563 7.51875C24.1563 8.45 23.4063 9.19375 22.4813 9.19375C21.55 9.19375 20.8063 8.44375 20.8063 7.51875C20.8063 6.59375 21.5563 5.84375 22.4813 5.84375C23.4063 5.84375 24.1563 6.59375 24.1563 7.51875ZM28.9125 9.21875C28.8063 6.975 28.2938 4.9875 26.65 3.35C25.0125 1.7125 23.025 1.2 20.7813 1.0875C18.4688 0.95625 11.5375 0.95625 9.225 1.0875C6.9875 1.19375 5 1.70625 3.35625 3.34375C1.7125 4.98125 1.20625 6.96875 1.09375 9.2125C0.962503 11.525 0.962503 18.4562 1.09375 20.7687C1.2 23.0125 1.7125 25 3.35625 26.6375C5 28.275 6.98125 28.7875 9.225 28.9C11.5375 29.0312 18.4688 29.0312 20.7813 28.9C23.025 28.7937 25.0125 28.2812 26.65 26.6375C28.2875 25 28.8 23.0125 28.9125 20.7687C29.0438 18.4562 29.0438 11.5312 28.9125 9.21875V9.21875ZM25.925 23.25C25.4375 24.475 24.4938 25.4187 23.2625 25.9125C21.4188 26.6437 17.0438 26.475 15.0063 26.475C12.9688 26.475 8.5875 26.6375 6.75 25.9125C5.525 25.425 4.58125 24.4812 4.0875 23.25C3.35625 21.4062 3.525 17.0312 3.525 14.9937C3.525 12.9562 3.3625 8.575 4.0875 6.7375C4.575 5.5125 5.51875 4.56875 6.75 4.075C8.59375 3.34375 12.9688 3.5125 15.0063 3.5125C17.0438 3.5125 21.425 3.35 23.2625 4.075C24.4875 4.5625 25.4313 5.50625 25.925 6.7375C26.6563 8.58125 26.4875 12.9562 26.4875 14.9937C26.4875 17.0312 26.6563 21.4125 25.925 23.25Z" fill="#26280b"/>
</svg>
