<svg width="34" height="33" viewBox="0 0 45 33" fill="none" xmlns="http://www.w3.org/2000/svg">
<path d="M21.7073 12.2279C25.5072 16.0317 25.455 22.1302 21.7302 25.8757C21.7232 25.8833 21.715 25.8916 21.7073 25.8992L17.4335 30.1731C13.6639 33.9426 7.53111 33.9421 3.76215 30.1731C-0.00738541 26.4042 -0.00738541 20.2707 3.76215 16.5018L6.12206 14.1419C6.74788 13.516 7.82563 13.932 7.85794 14.8164C7.89915 15.9435 8.10127 17.0759 8.47422 18.1694C8.60053 18.5397 8.51028 18.9493 8.23362 19.2259L7.4013 20.0582C5.61886 21.8407 5.56296 24.743 7.32784 26.5428C9.11015 28.3604 12.0397 28.3712 13.8356 26.5753L18.1095 22.302C19.9024 20.5091 19.8949 17.6111 18.1095 15.8257C17.8741 15.5908 17.637 15.4082 17.4518 15.2807C17.3208 15.1908 17.2126 15.0714 17.1359 14.9322C17.0592 14.793 17.0161 14.6378 17.01 14.479C16.9848 13.8069 17.2229 13.1144 17.754 12.5834L19.093 11.2443C19.4441 10.8931 19.995 10.85 20.4021 11.1342C20.8684 11.4598 21.3052 11.8258 21.7073 12.2279V12.2279ZM30.6707 3.26408C26.9017 -0.504939 20.7689 -0.505447 16.9994 3.26408L12.7255 7.53796C12.7179 7.54559 12.7096 7.55386 12.7026 7.56149C8.97786 11.307 8.92565 17.4055 12.7255 21.2093C13.1276 21.6114 13.5644 21.9773 14.0306 22.3029C14.4378 22.5871 14.9887 22.5439 15.3398 22.1928L16.6788 20.8537C17.2098 20.3227 17.448 19.6302 17.4228 18.9581C17.4167 18.7993 17.3736 18.6441 17.2969 18.5049C17.2201 18.3657 17.112 18.2463 16.9809 18.1564C16.7957 18.0289 16.5586 17.8463 16.3233 17.6114C14.5378 15.826 14.5303 12.928 16.3233 11.1351L20.5971 6.86183C22.3931 5.06585 25.3226 5.07666 27.1049 6.89427C28.8698 8.69413 28.814 11.5964 27.0315 13.3789L26.1992 14.2112C25.9225 14.4878 25.8323 14.8974 25.9586 15.2677C26.3315 16.3612 26.5336 17.4936 26.5748 18.6207C26.6072 19.5051 27.6849 19.9211 28.3107 19.2952L30.6706 16.9353C34.4402 13.1665 34.4402 7.03298 30.6707 3.26408V3.26408Z" fill="#26280b"/>
</svg>
